<?xml version="1.0" encoding="UTF-8"?>
<svg width="33px" height="15px" viewBox="0 0 33 15" version="1.1" xmlns="http://www.w3.org/2000/svg" xmlns:xlink="http://www.w3.org/1999/xlink">
    <!-- Generator: Sketch 52.3 (67297) - http://www.bohemiancoding.com/sketch -->
    <title>分组 25</title>
    <desc>Created with Sketch.</desc>
    <defs>
        <linearGradient x1="-23.0634342%" y1="26.3098207%" x2="78.7372109%" y2="87.5688285%" id="linearGradient-1">
            <stop stop-color="#C757FF" offset="0%"></stop>
            <stop stop-color="#A67FFF" offset="100%"></stop>
        </linearGradient>
    </defs>
    <g id="Page-1" stroke="none" stroke-width="1" fill="none" fill-rule="evenodd">
        <g id="9块9" transform="translate(-513.000000, -693.000000)">
            <g id="分组-5" transform="translate(454.000000, 692.000000)">
                <g id="分组-26" transform="translate(59.000000, 0.000000)">
                    <g id="分组-25">
                        <path d="M3,11 L-6.8963755e-17,8.5 L3,6 L3,3 C3,1.8954305 3.8954305,1 5,1 L31,1 C32.1045695,1 33,1.8954305 33,3 L33,14 C33,15.1045695 32.1045695,16 31,16 L5,16 C3.8954305,16 3,15.1045695 3,14 L3,11 Z" id="合并形状" fill="url(#linearGradient-1)"></path>
                        <path d="M9.08203125,11.0488281 C10.1171927,11.5097679 11.234369,12.0234347 12.4335938,12.5898438 L15.0820312,10.2988281 L8.51953125,10.2988281 L8.51953125,9.43164062 L9.08789062,7.97851562 L6.29296875,7.97851562 L6.29296875,7.08789062 L9.43945312,7.08789062 L10.0722656,5.48242188 L7.0078125,5.48242188 L7.0078125,4.59179688 L10.4238281,4.59179688 L11.0390625,3.03320312 L12.1054688,3.03320312 L11.4902344,4.59179688 L17.0390625,4.59179688 L17.0390625,5.48242188 L11.1386719,5.48242188 L10.5058594,7.08789062 L17.7890625,7.08789062 L17.7890625,7.97851562 L10.1542969,7.97851562 L9.5859375,9.41992188 L16.4179688,9.41992188 L16.4179688,10.3339844 L13.3007812,13 C13.8242214,13.2500013 14.3632785,13.5097643 14.9179688,13.7792969 L14.34375,14.6699219 C12.3828027,13.6386667 10.4648531,12.6933637 8.58984375,11.8339844 L9.08203125,11.0488281 Z M18.1640625,13.5449219 C18.7343779,12.7714805 19.0429685,11.57618 19.0898438,9.95898438 L19.8984375,9.95898438 C19.8749999,10.4433618 19.8359378,10.9042947 19.78125,11.3417969 C20.0703139,11.865237 20.4374978,12.2871078 20.8828125,12.6074219 L20.8828125,9.40820312 L18.2578125,9.40820312 L18.2578125,8.64648438 L23.671875,8.64648438 L23.671875,9.40820312 L21.65625,9.40820312 L21.65625,10.6503906 L23.5429688,10.6503906 L23.5429688,11.4121094 L21.65625,11.4121094 L21.65625,13.0292969 C22.1796901,13.2402354 22.7773404,13.3535155 23.4492188,13.3691406 C24.8242256,13.4550786 26.9452982,13.4355475 29.8125,13.3105469 C29.7265621,13.5683607 29.6171882,13.8769513 29.484375,14.2363281 C26.687486,14.306641 24.6757874,14.2910161 23.4492188,14.1894531 C21.7070225,14.1425779 20.4218791,13.5293028 19.59375,12.3496094 C19.390624,13.2324263 19.0859395,13.9980436 18.6796875,14.6464844 C18.5234367,14.279295 18.3515634,13.9121112 18.1640625,13.5449219 Z M18.984375,3.54882812 L23.109375,3.54882812 L23.109375,8.06054688 L22.3359375,8.06054688 L22.3359375,7.69726562 L19.7578125,7.69726562 L19.7578125,8.06054688 L18.984375,8.06054688 L18.984375,3.54882812 Z M24.1171875,5.72851562 L25.8164062,5.72851562 C25.8945316,5.26757582 25.9609372,4.82226777 26.015625,4.39257812 L23.6835938,4.39257812 L23.6835938,3.63085938 L29.5664062,3.63085938 L29.5664062,4.39257812 L26.8828125,4.39257812 C26.8124996,4.85351793 26.7343754,5.29882598 26.6484375,5.72851562 L28.9453125,5.72851562 L28.9453125,10.6972656 L28.171875,10.6972656 L28.171875,6.49023438 L24.890625,6.49023438 L24.890625,10.6972656 L24.1171875,10.6972656 L24.1171875,5.72851562 Z M26.1445312,6.99414062 L26.9179688,6.99414062 L26.9179688,8.45898438 C26.9179688,9.2246132 26.8398445,9.88085664 26.6835938,10.4277344 C27.8867248,11.2949262 28.7734346,11.9746069 29.34375,12.4667969 L28.7109375,13.0878906 C28.0859344,12.5019502 27.3164108,11.8652378 26.4023438,11.1777344 C26.3554685,11.2636723 26.308594,11.3457027 26.2617188,11.4238281 C25.7929664,12.1738319 24.9960994,12.7675759 23.8710938,13.2050781 C23.6914054,12.9785145 23.48047,12.748048 23.2382812,12.5136719 C24.3320367,12.1542951 25.0898416,11.6738311 25.5117188,11.0722656 C25.9335959,10.4785127 26.1445312,9.59570898 26.1445312,8.42382812 L26.1445312,6.99414062 Z M19.7578125,6.99414062 L22.3359375,6.99414062 L22.3359375,5.96289062 L19.7578125,5.96289062 L19.7578125,6.99414062 Z M22.3359375,4.25195312 L19.7578125,4.25195312 L19.7578125,5.27148438 L22.3359375,5.27148438 L22.3359375,4.25195312 Z" id="专题" fill="#FFFFFF"></path>
                    </g>
                </g>
            </g>
        </g>
    </g>
</svg>