<?xml version="1.0" encoding="UTF-8"?>
<svg width="18px" height="18px" viewBox="0 0 18 18" version="1.1" xmlns="http://www.w3.org/2000/svg" xmlns:xlink="http://www.w3.org/1999/xlink">
    <!-- Generator: Sketch 48.1 (47250) - http://www.bohemiancoding.com/sketch -->
    <title>Combined Shape</title>
    <desc>Created with Sketch.</desc>
    <defs></defs>
    <g id="Page-1" stroke="none" stroke-width="1" fill="none" fill-rule="evenodd">
        <path d="M9,7.58578644 L15.363961,1.22182541 C15.7544853,0.831301115 16.3876503,0.831301115 16.7781746,1.22182541 C17.1686989,1.6123497 17.1686989,2.24551468 16.7781746,2.63603897 L10.4142136,9 L16.7781746,15.363961 C17.1686989,15.7544853 17.1686989,16.3876503 16.7781746,16.7781746 C16.3876503,17.1686989 15.7544853,17.1686989 15.363961,16.7781746 L9,10.4142136 L2.63603897,16.7781746 C2.24551468,17.1686989 1.6123497,17.1686989 1.22182541,16.7781746 C0.831301115,16.3876503 0.831301115,15.7544853 1.22182541,15.363961 L7.58578644,9 L1.22182541,2.63603897 C0.831301115,2.24551468 0.831301115,1.6123497 1.22182541,1.22182541 C1.6123497,0.831301115 2.24551468,0.831301115 2.63603897,1.22182541 L9,7.58578644 Z" id="Combined-Shape" fill="#FFFFFF"></path>
    </g>
</svg>